HIERARCHY
ROOT root
{
	OFFSET 0.000000 0.000000 0.000000
	CHANNELS 6 Xposition Yposition Zposition Zrotation Yrotation Xrotation
	JOINT lhip
	{
		OFFSET 0.058581 -0.082280 -0.017664
		CHANNELS 3 Zrotation Yrotation Xrotation
		JOINT lknee
		{
			OFFSET 0.043451 -0.386469 0.008037
			CHANNELS 3 Zrotation Yrotation Xrotation
			JOINT lankle
			{
				OFFSET -0.014790 -0.426874 -0.037428
				CHANNELS 3 Zrotation Yrotation Xrotation
				JOINT ltoe
				{
					OFFSET 0.041054 -0.060286 0.122042
					CHANNELS 3 Zrotation Yrotation Xrotation
					End Site
					{
						OFFSET 0.000000 0.000000 0.000000
					}
				}
			}
		}
	}
	JOINT rhip
	{
		OFFSET -0.060310 -0.090513 -0.013543
		CHANNELS 3 Zrotation Yrotation Xrotation
		JOINT rknee
		{
			OFFSET -0.043257 -0.383688 -0.004843
			CHANNELS 3 Zrotation Yrotation Xrotation
			JOINT rankle
			{
				OFFSET 0.019056 -0.420046 -0.034562
				CHANNELS 3 Zrotation Yrotation Xrotation
				JOINT rtoe
				{
					OFFSET -0.034840 -0.062106 0.130323
					CHANNELS 3 Zrotation Yrotation Xrotation
					End Site
					{
						OFFSET 0.000000 0.000000 0.000000
					}
				}
			}
		}
	}
	JOINT lowerback
	{
		OFFSET 0.004439 0.124404 -0.038385
		CHANNELS 3 Zrotation Yrotation Xrotation
		JOINT upperback
		{
			OFFSET 0.004488 0.137956 0.026820
			CHANNELS 3 Zrotation Yrotation Xrotation
			JOINT chest
			{
				OFFSET -0.002265 0.056032 0.002855
				CHANNELS 3 Zrotation Yrotation Xrotation
				JOINT lowerneck
				{
					OFFSET -0.013390 0.211636 -0.033468
					CHANNELS 3 Zrotation Yrotation Xrotation
					JOINT upperneck
					{
						OFFSET 0.010113 0.088937 0.050410
						CHANNELS 3 Zrotation Yrotation Xrotation
						End Site
						{
							OFFSET 0.000000 0.000000 0.000000
						}
					}
				}
				JOINT lclavicle
				{
					OFFSET 0.071702 0.114000 -0.018898
					CHANNELS 3 Zrotation Yrotation Xrotation
					JOINT lshoulder
					{
						OFFSET 0.122921 0.045205 -0.019046
						CHANNELS 3 Zrotation Yrotation Xrotation
						JOINT lelbow
						{
							OFFSET 0.255332 -0.015649 -0.022946
							CHANNELS 3 Zrotation Yrotation Xrotation
							JOINT lwrist
							{
								OFFSET 0.265709 0.012698 -0.007375
								CHANNELS 3 Zrotation Yrotation Xrotation
								End Site
								{
									OFFSET 0.000000 0.000000 0.000000
								}
							}
						}
					}
				}
				JOINT rclavicle
				{
					OFFSET -0.082954 0.112472 -0.023707
					CHANNELS 3 Zrotation Yrotation Xrotation
					JOINT rshoulder
					{
						OFFSET -0.113228 0.046853 -0.008472
						CHANNELS 3 Zrotation Yrotation Xrotation
						JOINT relbow
						{
							OFFSET -0.260127 -0.014369 -0.031269
							CHANNELS 3 Zrotation Yrotation Xrotation
							JOINT rwrist
							{
								OFFSET -0.269108 0.006794 -0.006027
								CHANNELS 3 Zrotation Yrotation Xrotation
								End Site
								{
									OFFSET 0.000000 0.000000 0.000000
								}
							}
						}
					}
				}
			}
		}
	}
}
MOTION
Frames: 14
Frame Time: 0.033333
0.074878 -1.632855 0.912546 -83.773615 5.390680 93.130405 19.934844 10.530829 -24.631011 -10.527130 4.348349 37.552347 0.231414 3.352505 -24.208910 0.000000 -0.000000 0.000000 -7.080742 -9.980885 -28.930835 1.858819 -17.344153 51.210316 1.031799 -5.778990 -22.464101 0.000000 -0.000000 0.000000 -8.609535 4.043543 31.132128 2.953374 -3.237567 -2.080326 2.221421 -2.044536 -1.772440 9.259292 -0.089005 -18.777719 13.925539 -16.591709 -8.984565 -26.956651 -3.740711 7.290997 -35.803988 2.323844 8.437022 3.138586 -55.108465 6.274350 12.075251 -10.694391 -11.091400 31.037225 7.906777 3.047268 60.225168 3.573733 9.910992 -27.027988 47.858602 -18.231713 -1.410502 8.981356 -5.311143 
0.085972 -1.619640 0.882988 -82.492848 6.510457 95.278246 22.477928 13.483189 -32.215341 -11.243694 6.499866 45.132143 1.258269 0.771132 -24.693012 0.000000 -0.000000 0.000000 -8.719126 -11.685748 -35.551303 -0.443285 -19.074626 58.784147 -0.713645 -7.868531 -23.241008 0.000000 -0.000000 0.000000 -8.794999 5.603053 35.374375 2.973105 -3.732462 -2.778728 3.224162 -2.172560 -3.255966 8.944678 -1.963866 -20.963368 17.960850 -15.921334 -12.557431 -27.506642 -7.072517 6.617610 -32.928868 2.297765 3.939279 7.802592 -54.858552 -1.234977 18.099688 -9.592689 -13.971499 30.536842 10.544376 4.410850 58.771931 2.875339 6.306529 -37.270671 51.053411 -30.462708 -6.220258 10.084110 -6.975628 
0.093400 -1.605617 0.851711 -81.401658 7.889018 96.277283 24.875916 16.377783 -38.239769 -11.579876 7.324870 52.505772 1.179132 -0.596687 -26.307957 0.000000 -0.000000 0.000000 -11.098142 -13.840788 -39.250075 -3.337518 -18.905833 63.346482 -1.187408 -9.062264 -22.484152 0.000000 -0.000000 0.000000 -8.705106 7.215843 39.875258 2.857372 -3.391892 -3.339808 3.898325 -1.885727 -4.118805 10.018002 -4.506975 -23.103861 20.330547 -16.630470 -15.570680 -28.535217 -9.305131 6.364622 -28.724645 -0.740807 -0.399949 16.145572 -56.628264 -11.567508 20.104529 -7.994177 -14.958610 30.363610 12.059037 4.714902 56.115400 3.035862 2.878114 -46.782476 50.241037 -41.328986 -11.210469 10.210852 -8.793170 
0.097818 -1.587059 0.811386 -80.726312 8.595199 96.650517 28.022171 21.639410 -43.700897 -13.712923 9.192942 60.629053 0.035924 -4.710189 -27.640349 0.000000 -0.000000 0.000000 -15.775358 -16.744364 -41.279470 -3.689788 -14.532294 64.192535 -0.495067 -8.690830 -21.008306 0.000000 -0.000000 0.000000 -8.888415 9.811363 44.481252 2.274111 -3.192480 -2.885144 3.900487 -1.315156 -4.967489 11.103312 -6.945368 -24.777246 23.699725 -19.134996 -18.727183 -28.812635 -12.132282 4.826272 -19.812520 -5.412290 -4.476909 23.864075 -62.562589 -21.493558 29.918857 -4.758241 -14.900987 30.365737 13.135082 4.841021 51.740403 3.206391 -1.876300 -53.160557 46.640268 -52.084355 -23.012887 9.221484 -10.796121 
0.098903 -1.576150 0.790926 -79.533191 7.966569 95.932372 28.203277 22.218289 -46.266886 -13.552125 9.454364 64.807473 -0.219791 -5.378998 -28.319370 0.000000 -0.000000 0.000000 -20.126622 -19.787911 -39.981765 -4.641992 -11.943990 63.318188 1.102763 -8.488049 -20.226338 0.000000 -0.000000 0.000000 -7.983060 11.412345 48.798117 1.513481 -4.104330 -3.178092 3.890197 -1.684609 -5.424047 11.292201 -8.381937 -24.383637 24.878172 -20.721463 -20.298565 -27.398024 -14.306756 3.029577 -13.296382 -8.549268 -6.661234 25.841249 -66.267732 -23.550984 30.931793 -6.510242 -14.829066 29.085135 13.416137 4.046745 49.534139 1.492210 -3.622080 -54.744821 44.228283 -58.302862 -28.884047 8.691924 -14.344155 
0.097764 -1.556210 0.764073 -78.472803 7.777717 95.805062 29.153481 23.744376 -49.754559 -13.898789 8.959315 69.160722 -1.059114 -6.184847 -28.327519 0.000000 -0.000000 0.000000 -24.762784 -22.901341 -38.953343 -6.786246 -9.549511 61.922939 1.884139 -10.231588 -19.024144 0.000000 -0.000000 0.000000 -7.337652 12.913604 51.916113 1.279573 -4.866485 -3.618163 4.080850 -1.978212 -5.105943 9.366525 -8.974888 -22.006111 25.093107 -20.405547 -21.039651 -24.035659 -17.002300 1.209000 -5.256784 -11.459955 -9.150936 33.945866 -70.747617 -30.761067 35.907017 -7.933381 -13.345236 27.552426 13.311661 3.594412 45.745235 -2.550818 -5.343980 -55.332762 42.440969 -62.733731 -35.626312 8.244081 -15.560141 
0.094996 -1.529626 0.741302 -78.187672 8.040503 95.626056 31.024711 25.174252 -51.754249 -14.414826 7.778582 71.698171 -3.087970 -6.772763 -28.688553 0.000000 -0.000000 0.000000 -28.404264 -24.203884 -38.335999 -7.852325 -8.189403 61.488020 4.313314 -10.859893 -18.681958 0.000000 -0.000000 0.000000 -7.584506 13.906163 53.656323 1.963290 -5.509141 -3.935537 4.532923 -2.241266 -4.557131 7.911615 -7.244853 -19.667678 24.607351 -19.742409 -21.531202 -19.721159 -18.052621 -0.308821 1.442577 -13.039202 -12.415246 48.428450 -72.752049 -44.070471 40.321737 -9.168579 -14.000153 25.874471 12.109426 2.117063 42.522138 -4.603105 -7.317765 -54.779144 40.326189 -63.071334 -37.582139 9.348855 -14.819406 
0.090850 -1.498762 0.724448 -78.538823 8.103811 95.025674 33.088574 26.594419 -52.119031 -14.752975 6.151601 72.719884 -4.953207 -7.237578 -27.699789 0.000000 -0.000000 0.000000 -30.552031 -25.560411 -38.774180 -7.770867 -6.949087 62.896362 5.067150 -10.681689 -18.639571 0.000000 -0.000000 0.000000 -7.508747 13.908651 55.349330 2.410410 -6.114628 -4.098080 5.237836 -2.474045 -4.791975 6.699721 -6.205171 -17.908444 24.671888 -18.770495 -21.853019 -17.261466 -18.791734 -1.255175 6.789819 -12.537337 -16.282664 58.964730 -71.901999 -52.842841 40.204861 -9.245879 -12.059851 23.834821 11.458034 2.063092 39.516801 -6.405373 -9.966150 -54.451572 39.154726 -64.274504 -38.812500 8.109718 -16.034279 
0.085846 -1.462016 0.713150 -79.661667 7.691432 94.431556 35.275637 27.341584 -50.687343 -15.093698 3.855041 71.667241 -7.340664 -7.022127 -26.393207 0.000000 -0.000000 0.000000 -31.394818 -27.122894 -40.795187 -8.296943 -7.704536 66.310273 4.999849 -12.094277 -19.286680 0.000000 -0.000000 0.000000 -7.452739 12.687279 55.849795 2.227263 -6.014455 -4.174451 5.556635 -3.068027 -4.141331 6.098654 -4.961967 -18.021585 23.280004 -16.490965 -21.583177 -16.229932 -18.612342 -2.341884 9.332578 -11.795198 -19.630544 60.923021 -68.088619 -54.362159 40.255755 -10.053948 -11.486518 21.454189 10.815153 1.058389 36.215228 -6.993882 -12.029253 -52.815348 38.216710 -63.044530 -38.439540 8.040469 -16.038649 
0.077599 -1.408800 0.707231 -82.884207 6.144365 93.329319 38.420186 28.268830 -44.987244 -14.989000 1.189078 67.214066 -10.832435 -6.315490 -23.481917 0.000000 -0.000000 0.000000 -30.058206 -29.136766 -44.835312 -9.202517 -11.259390 71.666969 4.308699 -13.349886 -19.839006 0.000000 -0.000000 0.000000 -7.763778 9.505952 55.561348 0.992814 -5.440751 -4.313126 5.227806 -3.465171 -4.129292 5.691918 -5.461802 -15.756571 22.203217 -11.663625 -20.290425 -16.382232 -15.943212 -1.293751 6.471491 -8.361977 -19.865187 67.918647 -64.014617 -64.031526 43.031904 -6.580522 -14.566850 17.635556 10.994798 0.211301 31.089600 -5.553373 -14.812417 -50.799512 38.232403 -63.874706 -37.011354 9.067317 -15.469302 
0.069317 -1.360262 0.709566 -86.496233 4.228095 92.854149 40.693901 28.220152 -38.179516 -13.007952 -0.643043 61.107031 -13.772318 -5.019397 -20.581304 0.000000 -0.000000 0.000000 -27.932854 -29.194957 -49.190065 -8.216793 -10.993741 76.810250 4.027024 -10.020667 -22.510221 0.000000 -0.000000 0.000000 -7.618778 5.687282 53.016409 -0.464762 -4.020686 -3.251769 3.806174 -3.544306 -3.289860 4.488410 -3.661014 -15.065385 18.126522 -7.924095 -18.919365 -18.045742 -11.930633 -0.956647 0.530394 -5.016474 -17.639923 71.565740 -61.999146 -68.643597 41.643852 -5.661850 -16.777899 15.435833 10.931776 -1.736894 24.184481 -1.802904 -16.510068 -50.019352 38.518024 -65.777056 -34.971797 10.252028 -13.082820 
0.055237 -1.307528 0.720039 -90.202515 1.800287 91.406057 41.963864 26.417300 -28.159593 -12.508307 -5.167052 51.437856 -16.319729 0.240254 -16.014807 0.000000 -0.000000 0.000000 -27.171734 -28.847932 -50.073289 -6.297886 -10.862145 78.916111 -1.504361 -18.721048 -22.863436 0.000000 -0.000000 0.000000 -4.862549 0.700886 52.613202 -3.746043 -2.963579 -3.746092 1.639987 -3.253375 -2.074016 -0.481605 -6.622981 -15.540719 15.581494 -3.288226 -16.056368 -23.899238 -10.302718 -1.275172 -1.815205 3.371708 -13.050807 71.909553 -63.757847 -71.638666 40.219714 -6.721943 -15.477903 16.465985 15.611131 0.714844 12.695841 -5.458876 -21.429604 -49.993423 42.422192 -70.846946 -32.042042 13.116894 -11.486694 
0.038622 -1.246752 0.739254 -94.018110 -1.667878 91.744577 41.588148 21.976773 -17.417905 -7.752515 -6.371389 38.718101 -20.087074 2.851212 -8.996394 0.000000 -0.000000 0.000000 -27.389450 -27.556024 -50.024647 -7.322416 -13.046991 80.824539 0.084635 -13.024986 -23.125913 0.000000 -0.000000 0.000000 -4.618530 -3.573900 47.553555 -6.258981 0.183377 0.187879 -2.069930 -2.371153 -2.293015 -2.634032 -4.754071 -13.371469 9.569357 -3.403005 -17.070442 -25.709143 -4.910761 1.132377 -10.256827 3.078516 -10.239756 74.096142 -61.954959 -69.945074 36.981822 -3.775329 -21.754596 15.192397 13.405621 -0.102584 8.198803 1.066114 -20.050934 -51.375278 42.294019 -69.404532 -36.762822 12.636439 -9.673705 
0.020898 -1.177574 0.764121 -97.057469 -4.466126 93.339421 40.111610 18.332129 -11.942272 -4.354196 -3.744283 30.013001 -16.360820 9.183023 4.611309 0.000000 -0.000000 0.000000 -25.300192 -25.674466 -50.120399 -6.082742 -14.810081 80.939496 -1.443304 -13.568475 -25.473917 0.000000 -0.000000 0.000000 -3.601435 -4.952909 42.759069 -8.617206 2.217366 0.255613 -4.145448 -2.145995 -0.997312 -5.898914 -6.650322 -10.369270 6.623957 -2.098733 -15.450009 -27.955868 -1.314475 0.503706 -15.306620 4.794719 -6.761005 75.007510 -63.016050 -70.199693 35.448098 -3.720641 -22.544978 13.903505 13.359372 -0.226608 6.834596 3.237341 -19.755060 -50.722051 43.565341 -68.924738 -36.875963 14.517606 -7.263815 
